<svg xmlns="http://www.w3.org/2000/svg" width="32" height="32" viewBox="0 0 224 224">
    <g fill="none" stroke-miterlimit="10" font-family="none" font-weight="none" font-size="none" text-anchor="none" style="mix-blend-mode:normal">
        <path d="M0 224V0h224v224z"/>
        <path d="M84 14c-26.988 0-49 22.012-49 49 0 16.871 8.613 31.855 21.656 40.688C31.691 114.406 14 139.18 14 168h14c0-31.008 24.992-56 56-56 9.625 0 18.594 2.516 26.469 6.781C102.703 128.406 98 140.711 98 154c0 30.844 25.156 56 56 56s56-25.156 56-56-25.156-56-56-56c-12.223 0-23.598 4.02-32.813 10.719-3.09-1.942-6.453-3.582-9.843-5.031C124.387 94.855 133 79.87 133 63c0-26.988-22.012-49-49-49zm0 14c19.414 0 35 15.586 35 35s-15.586 35-35 35-35-15.586-35-35 15.586-35 35-35zm70 84c23.27 0 42 18.73 42 42s-18.73 42-42 42-42-18.73-42-42 18.73-42 42-42zm-7 14v21h-21v14h21v21h14v-21h21v-14h-21v-21z" fill="#fff"/>
    </g>
</svg>
