<svg xmlns="http://www.w3.org/2000/svg" width="32" height="32" viewBox="0 0 224 224">
    <g fill="none" stroke-miterlimit="10" font-family="none" font-weight="none" font-size="none" text-anchor="none" style="mix-blend-mode:normal">
        <path d="M0 224V0h224v224z"/>
        <path d="M60.594 21c-3.664 0-7.274 1.313-10.282 3.719l-.437.218-.219.22-21.875 22.53.219.22c-6.754 6.234-8.832 15.558-5.906 23.624.027.055-.028.164 0 .219 5.933 16.98 21.11 49.766 50.75 79.406 29.75 29.75 62.972 44.324 79.406 50.75h.219c8.504 2.844 17.719.82 24.281-4.812L198.844 175c5.797-5.797 5.797-15.86 0-21.656l-28.438-28.438-.219-.437c-5.796-5.797-16.078-5.797-21.875 0l-14 14c-5.058-2.434-17.117-8.668-28.656-19.688C94.2 107.844 88.348 95.266 86.187 90.344l14-14c5.88-5.88 5.989-15.668-.218-21.438l.219-.218-.657-.657-28-28.875-.219-.218-.437-.22C67.867 22.314 64.258 21 60.594 21zm0 14c.52 0 1.039.246 1.531.656l28 28.657.656.656c-.054-.055.41.683-.437 1.531L72.844 84l-3.281 3.063 1.53 4.374s8.04 21.52 24.938 37.626l1.531 1.312C113.832 145.223 133 153.344 133 153.344l4.375 1.969 20.781-20.782c1.203-1.203.985-1.203 2.188 0L189 163.187c1.203 1.204 1.203.766 0 1.97l-21.438 21.437c-3.226 2.761-6.644 3.336-10.718 1.969-15.86-6.235-46.676-19.77-74.156-47.25-27.7-27.7-42.165-59.118-47.47-74.375-1.066-2.844-.3-7.055 2.188-9.188l.438-.438 21.218-21.656c.493-.41 1.012-.656 1.532-.656z" fill="#fff"/>
    </g>
</svg>
