<svg xmlns="http://www.w3.org/2000/svg" width="32" height="32" viewBox="0 0 224 224">
    <g fill="none" stroke-miterlimit="10" font-family="none" font-weight="none" font-size="none" text-anchor="none" style="mix-blend-mode:normal">
        <path d="M0 224V0h224v224z"/>
        <path d="M172.813 28.219c-5.852 0-11.54 2.351-15.97 6.781l-.655.656-4.375-4.156L36.313 147l-.438 2.188-7.656 38.5-2.188 10.28 10.282-2.187 38.5-7.656 2.187-.438 115.5-115.5-4.156-4.156.437-.437.219-.438c8.86-8.86 8.86-23.297 0-32.156-4.43-4.43-10.336-6.781-16.188-6.781zm0 13.781c2.187 0 4.484.984 6.343 2.844 3.746 3.746 3.746 8.722 0 12.468l-.656.657L166.031 45.5l.656-.656c1.86-1.86 3.938-2.844 6.125-2.844zm-20.782 9.188l20.781 20.78L162.75 82.25l-21-21zm-19.906 20.124l20.563 20.563-73.063 73.281-2.844-12.687-.875-4.375-4.375-.875-12.687-2.844zm-83.344 85.094l15.313 3.5 3.5 15.313-14.219 2.844-7.438-7.438z" fill="#fff"/>
    </g>
</svg>
