<svg xmlns="http://www.w3.org/2000/svg" width="32" height="32" viewBox="0 0 224 224">
    <g fill="none" stroke-miterlimit="10" font-family="none" font-weight="none" font-size="none" text-anchor="none" style="mix-blend-mode:normal">
        <path d="M0 224V0h224v224z"/>
        <path d="M113.313 28c-51.543-.766-92.915 45.39-84.22 98.219 5.907 35.847 35.329 64.039 71.313 68.906 24.254 3.281 46.922-3.719 64.094-17.5l-8.75-10.938c-14.328 11.485-33.168 17.418-53.594 14.657-29.777-4.02-54.195-27.672-59.062-57.313-7.328-44.597 26.851-82.66 70-82.031 36.777.547 67.785 31.035 68.906 67.813.027.792 0 1.558 0 2.406C181.945 127.64 169.45 140 154 140c-7.82 0-14-6.18-14-14V70h-14v5.469C120.969 72.05 114.98 70 108.5 70 91.191 70 77 84.191 77 101.5v21c0 17.309 14.191 31.5 31.5 31.5 9.434 0 17.828-4.293 23.625-10.938C137.265 149.599 145.113 154 154 154c22.996 0 41.918-18.758 42-41.781 0-.93.027-1.832 0-2.844-1.34-44.352-38.336-80.719-82.688-81.375zM108.5 84c9.734 0 17.5 7.766 17.5 17.5v21c0 9.734-7.766 17.5-17.5 17.5S91 132.234 91 122.5v-21c0-9.734 7.766-17.5 17.5-17.5z" fill="#fff"/>
    </g>
</svg>
