<svg xmlns="http://www.w3.org/2000/svg" width="32" height="32" viewBox="0 0 224 224">
    <g fill="none" stroke-miterlimit="10" font-family="none" font-weight="none" font-size="none" text-anchor="none" style="mix-blend-mode:normal">
        <path d="M0 224V0h224v224z"/>
        <path d="M112 28c-46.32 0-84 37.68-84 84s37.68 84 84 84 84-37.68 84-84-37.68-84-84-84zm0 14c38.746 0 70 31.254 70 70 0 38.746-31.254 70-70 70-38.746 0-70-31.254-70-70 0-38.746 31.254-70 70-70zm0 28c-15.395 0-28 12.605-28 28h14c0-7.82 6.18-14 14-14s14 6.18 14 14c0 5.36-3.445 10.117-8.531 11.813l-2.844.874c-5.715 1.887-9.625 7.356-9.625 13.344V133h14v-8.969l2.844-.875C132.617 119.574 140 109.348 140 98c0-15.395-12.605-28-28-28zm-7 70v14h14v-14z" fill="#000"/>
    </g>
</svg>
