<svg xmlns="http://www.w3.org/2000/svg" width="32" height="32" viewBox="0 0 224 224">
    <g fill="none" stroke-miterlimit="10" font-family="none" font-weight="none" font-size="none" text-anchor="none" style="mix-blend-mode:normal">
        <path d="M0 224V0h224v224z"/>
        <path d="M42 98c-7.738 0-14 6.262-14 14s6.262 14 14 14 14-6.262 14-14-6.262-14-14-14zm70 0c-7.738 0-14 6.262-14 14s6.262 14 14 14 14-6.262 14-14-6.262-14-14-14zm70 0c-7.738 0-14 6.262-14 14s6.262 14 14 14 14-6.262 14-14-6.262-14-14-14z" fill="#fff"/>
    </g>
</svg>
