<svg xmlns="http://www.w3.org/2000/svg" width="32" height="32" viewBox="0 0 224 224">
    <g fill="none" stroke-miterlimit="10" font-family="none" font-weight="none" font-size="none" text-anchor="none" style="mix-blend-mode:normal">
        <path d="M0 224V0h224v224z"/>
        <path d="M112 21c-7.738 0-14 6.262-14 14 0 .602.137 1.176.219 1.75C74.019 42.93 56 64.914 56 91v63c0 3.965-3.035 7-7 7h-7v14h50.313c-.793 2.215-1.313 4.54-1.313 7 0 11.512 9.488 21 21 21s21-9.488 21-21c0-2.46-.52-4.785-1.313-7H182v-14h-7c-3.965 0-7-3.035-7-7V92.969c0-26.305-17.582-49.766-42.219-56.219.082-.574.219-1.148.219-1.75 0-7.738-6.262-14-14-14zm-3.063 28c1.012-.082 2.024 0 3.063 0h1.313C136.172 49.684 154 69.727 154 92.969V154c0 2.46.52 4.785 1.313 7H68.688c.792-2.215 1.312-4.54 1.312-7V91c0-22.23 17.117-40.414 38.938-42zM112 175c3.938 0 7 3.063 7 7 0 3.938-3.063 7-7 7-3.938 0-7-3.063-7-7 0-3.938 3.063-7 7-7z" fill="#fff"/>
    </g>
</svg>
