<svg xmlns="http://www.w3.org/2000/svg" width="32" height="32" viewBox="0 0 224 224">
    <g fill="none" stroke-miterlimit="10" font-family="none" font-weight="none" font-size="none" text-anchor="none" style="mix-blend-mode:normal">
        <path d="M0 224V0h224v224z"/>
        <path d="M133 35a55.929 55.929 0 0 0-39.156 16.406L51.188 94.063c-2.844 2.843-7.192 2.87-10.063 0L38.062 91 28 100.844l53.594 53.375C71.23 155.449 63 164.309 63 175c0 11.512 9.488 21 21 21 10.61 0 19.441-8.094 20.781-18.375L123.156 196l9.844-9.844-3.063-3.062c-2.843-2.844-2.652-7.192.22-10.063l42.874-42.437C183.887 119.738 189 105.137 189 91c0-10.145-2.488-20.344-7.875-29.313C185.828 59.419 189 54.551 189 49c0-7.738-6.262-14-14-14a13.954 13.954 0 0 0-12.688 8.094C153.345 37.68 143.145 34.918 133 35zm0 14c10.883-.082 21.71 3.992 29.969 12.25C171.199 69.48 175 79.926 175 91c0 10.719-4.02 21.52-12.031 29.531l-42.875 42.656a21.08 21.08 0 0 0-4.156 5.907l-61.032-61.031c2.215-1.012 4.32-2.352 6.125-4.157l42.657-42.656C111.78 53.156 122.308 49.082 133 49zM84 168c3.938 0 7 3.063 7 7 0 3.938-3.063 7-7 7-3.938 0-7-3.063-7-7 0-3.938 3.063-7 7-7z" fill="#fff"/>
    </g>
</svg>
