<svg xmlns="http://www.w3.org/2000/svg" width="32" height="32" viewBox="0 0 224 224">
    <g fill="none" stroke-miterlimit="10" font-family="none" font-weight="none" font-size="none" text-anchor="none" style="mix-blend-mode:normal">
        <path d="M0 224V0h224v224z"/>
        <path d="M185.5 0c-20 0-36.538 15.446-38.322 35H49c-11.515 0-21 9.485-21 21v126c0 11.515 9.485 21 21 21h126c11.515 0 21-9.485 21-21V75.496c16.11-4.603 28-19.458 28-36.996C224 17.32 206.68 0 185.5 0zm0 14A24.395 24.395 0 0 1 210 38.5 24.395 24.395 0 0 1 185.5 63 24.395 24.395 0 0 1 161 38.5 24.395 24.395 0 0 1 185.5 14zM49 49h99.504c4.293 15.025 17.503 26.363 33.496 27.822V182c0 3.955-3.045 7-7 7H49c-3.955 0-7-3.045-7-7V56c0-3.955 3.045-7 7-7z" fill="#fff"/>
    </g>
</svg>
