<svg xmlns="http://www.w3.org/2000/svg" width="32" height="32" viewBox="0 0 224 224">
    <g fill="none" stroke-miterlimit="10" font-family="none" font-weight="none" font-size="none" text-anchor="none" style="mix-blend-mode:normal">
        <path d="M0 224V0h224v224z"/>
        <path d="M112 56c-19.25 0-35 15.75-35 35 0 10.61 4.95 20.043 12.469 26.469-7.465 3.91-14 9.816-18.594 16.844-2.488-3.61-5.77-6.946-9.406-9.407C66.664 119.82 70 112.793 70 105c0-15.395-12.605-28-28-28s-28 12.605-28 28c0 7.793 3.336 14.82 8.531 19.906C13.207 131.223 7 141.996 7 154h14c0-11.594 9.406-21 21-21s21 9.406 21 21v7h14c0-19.277 15.723-35 35-35s35 15.723 35 35h14v-7c0-11.594 9.406-21 21-21s21 9.406 21 21h14c0-12.004-6.207-22.777-15.531-29.094C206.664 119.82 210 112.793 210 105c0-15.395-12.605-28-28-28s-28 12.605-28 28c0 7.793 3.336 14.82 8.531 19.906-3.636 2.461-6.918 5.797-9.406 9.406-4.594-7.027-11.129-12.933-18.594-16.843C142.051 111.043 147 101.609 147 91c0-19.25-15.75-35-35-35zm0 14c11.676 0 21 9.324 21 21s-9.324 21-21 21-21-9.324-21-21 9.324-21 21-21zM42 91c7.82 0 14 6.18 14 14s-6.18 14-14 14-14-6.18-14-14 6.18-14 14-14zm140 0c7.82 0 14 6.18 14 14s-6.18 14-14 14-14-6.18-14-14 6.18-14 14-14z" fill="#fff"/>
    </g>
</svg>
