<svg xmlns="http://www.w3.org/2000/svg" width="32" height="32" viewBox="0 0 224 224">
    <g fill="none" stroke-miterlimit="10" font-family="none" font-weight="none" font-size="none" text-anchor="none" style="mix-blend-mode:normal">
        <path d="M0 224V0h224v224z"/>
        <path d="M143.719 17.938l-4.813 6.562-34.344 46.813C86.16 68.112 66.692 73.308 52.5 87.5l-5.031 4.813L84.656 129.5 28 186.156V196h9.844L94.5 139.344l37.188 37.187 4.812-5.031c14.191-14.191 19.387-33.66 16.188-52.063L199.5 85.094l6.563-4.813zm1.75 21.437l39.156 39.156-43.531 31.938-3.938 2.844 1.313 4.593c3.363 12.824-.301 26.196-8.313 37.406L68.687 93.844c11.211-8.012 24.583-11.676 37.407-8.313l4.594 1.313 2.843-3.938z" fill="#000"/>
    </g>
</svg>
