<svg xmlns="http://www.w3.org/2000/svg" width="32" height="32" viewBox="0 0 224 224">
    <g fill="none" stroke-miterlimit="10" font-family="none" font-weight="none" font-size="none" text-anchor="none" style="mix-blend-mode:normal">
        <path d="M0 224V0h224v224z"/>
        <path d="M133 21c-38.582 0-70 31.418-70 70 0 16.762 5.879 32.129 15.75 44.188l-55.781 55.78 10.062 10.063 55.782-55.781C100.87 155.121 116.237 161 133 161c38.582 0 70-31.418 70-70s-31.418-70-70-70zm0 14c31.008 0 56 24.992 56 56s-24.992 56-56 56-56-24.992-56-56 24.992-56 56-56z" fill="#000"/>
    </g>
</svg>
