<svg xmlns="http://www.w3.org/2000/svg" width="32" height="32" viewBox="0 0 224 224">
    <g fill="none" stroke-miterlimit="10" font-family="none" font-weight="none" font-size="none" text-anchor="none" style="mix-blend-mode:normal">
        <path d="M0 224V0h224v224z"/>
        <path d="M92.313 21l-1.094 5.688-4.156 20.78c-6.672 2.626-12.688 6.317-18.157 10.72l-20.344-7-5.468-1.75-2.844 5.03-14 24.063-2.844 5.031 4.157 3.72 15.75 13.78C42.737 104.645 42 108.228 42 112c0 3.773.738 7.355 1.313 10.938l-15.75 13.78-4.157 3.72 2.844 5.03 14 24.063 2.844 5.031 5.468-1.75 20.344-7c5.469 4.403 11.485 8.094 18.156 10.72l4.157 20.78L92.313 203h39.374l1.094-5.688 4.156-20.78c6.672-2.626 12.688-6.317 18.157-10.72l20.344 7 5.468 1.75 2.844-5.03 14-24.063 2.844-5.031-4.156-3.72-15.75-13.78c.574-3.583 1.312-7.165 1.312-10.938 0-3.773-.738-7.355-1.313-10.938l15.75-13.78 4.157-3.72-2.844-5.03-14-24.063-2.844-5.032-5.469 1.75-20.343 7c-5.469-4.402-11.485-8.093-18.156-10.718l-4.157-20.782L131.687 21zm11.374 14h16.626l3.5 18.156.874 4.157 3.938 1.312a56.117 56.117 0 0 1 21.219 12.25l3.062 2.844 3.938-1.313 17.719-6.125 8.312 14.219-14 12.469-3.281 2.625 1.094 4.156c.902 3.992 1.312 8.066 1.312 12.25 0 4.184-.41 8.258-1.313 12.25l-.875 4.156 3.063 2.625 14 12.469-8.313 14.219-17.718-6.125-3.938-1.313-3.062 2.844a56.117 56.117 0 0 1-21.219 12.25l-3.938 1.313-.874 4.156-3.5 18.156h-16.626l-3.5-18.156-.874-4.156-3.938-1.313a56.117 56.117 0 0 1-21.219-12.25l-3.062-2.844-3.938 1.313-17.719 6.125-8.312-14.219 14-12.469 3.281-2.625-1.093-4.156C56.41 120.258 56 116.184 56 112c0-4.184.41-8.258 1.313-12.25l1.093-4.156-3.281-2.625-14-12.469 8.313-14.219 17.718 6.125 3.938 1.313 3.062-2.844a56.117 56.117 0 0 1 21.219-12.25l3.938-1.313.874-4.156zM112 77c-19.25 0-35 15.75-35 35s15.75 35 35 35 35-15.75 35-35-15.75-35-35-35zm0 14c11.676 0 21 9.324 21 21s-9.324 21-21 21-21-9.324-21-21 9.324-21 21-21z" fill="#fff"/>
    </g>
</svg>
