<svg xmlns="http://www.w3.org/2000/svg" width="32" height="32" viewBox="0 0 224 224">
    <g fill="none" stroke-miterlimit="10" font-family="none" font-weight="none" font-size="none" text-anchor="none" style="mix-blend-mode:normal">
        <path d="M0 224V0h224v224z"/>
        <path d="M112 28c-15.75 0-26.36 6.207-35.875 11.375C66.609 44.543 57.969 49 42 49h-7v7c0 54.031 18.266 89.195 36.75 110.469 18.484 21.273 37.625 29.094 37.625 29.094l2.625.875 2.625-.875s19.14-7.657 37.625-28.875C170.734 145.468 189 110.222 189 56v-7h-7c-15.887 0-24.61-4.457-34.125-9.625C138.359 34.207 127.75 28 112 28zm0 14c12.25 0 19.277 4.293 29.094 9.625 8.285 4.512 19.277 8.832 33.469 10.281-1.34 47.36-17.008 77.465-32.813 95.594-14.328 16.434-26.36 21.902-29.75 23.406-3.418-1.531-15.422-7.136-29.75-23.625-15.805-18.183-31.473-48.234-32.813-95.375 14.247-1.449 25.184-5.77 33.47-10.281C92.722 46.293 99.75 42 112 42zm36.969 36.969L105 122.938l-22.969-22.97-10.062 10.063 28 28 5.031 4.813 5.031-4.813 49-49z" fill="#fff"/>
    </g>
</svg>
