<svg xmlns="http://www.w3.org/2000/svg" width="32" height="32" viewBox="0 0 224 224">
    <g fill="none" stroke-miterlimit="10" font-family="none" font-weight="none" font-size="none" text-anchor="none" style="mix-blend-mode:normal">
        <path d="M0 224V0h224v224z"/>
        <path d="M56 28c-3.664 0-7.383 1.34-10.008 3.992C43.34 34.617 42 38.336 42 42v140c0 3.664 1.34 7.383 3.992 10.035C48.617 194.66 52.336 196 56 196h84c3.664 0 7.383-1.34 10.035-3.965C152.66 189.383 154 185.665 154 182v-49h42V49h-42v-7c0-3.664-1.34-7.383-3.965-10.008C147.383 29.34 143.665 28 140 28zm0 14h84v7H98v84h14v20.098l28-18.676V182H56zm56 21h70v56h-44.105L126 126.902V119h-14zm35 7a4.184 4.184 0 0 0-4.184 4.184c0 .273 0 .52.055.765-4.922 1.723-8.476 6.344-8.476 11.867v12.579a4.213 4.213 0 0 1-4.211 4.21v4.211h12.632a4.184 4.184 0 1 0 8.368 0h12.632v-4.21a4.213 4.213 0 0 1-4.21-4.211V86.816c0-5.523-3.555-10.144-8.477-11.867.055-.246.055-.492.055-.765A4.184 4.184 0 0 0 147 70zm-63 91v14h28v-14z" fill="#000"/>
    </g>
</svg>
