<svg xmlns="http://www.w3.org/2000/svg" width="32" height="32" viewBox="0 0 224 224">
    <g fill="none" stroke-miterlimit="10" font-family="none" font-weight="none" font-size="none" text-anchor="none" style="mix-blend-mode:normal">
        <path d="M0 224V0h224v224z"/>
        <path d="M26.031 15.969L15.97 26.03l51.625 51.625c-.028.055.027.164 0 .219l10.062 9.844c-.027.054.028.164 0 .219L92.97 103.03c-.028.055.027.164 0 .219l105 104.781 10.062-10.062-43.75-43.75c28.246-15.395 44.406-38.063 44.406-38.063l2.844-4.156-2.844-4.156S174.618 60.266 119 56.438a53.761 53.761 0 0 0-7-.438c-2.242 0-4.375.164-6.563.438-11.566.765-22.34 3.253-31.937 7zM112 70c23.16 0 42 18.84 42 42 0 9.023-2.79 17.418-7.656 24.281L131.03 120.75c1.258-2.68 1.969-5.578 1.969-8.75 0-11.594-9.406-21-21-21-3.172 0-6.07.71-8.75 1.969l-15.53-15.313c5.277-3.746 11.484-6.234 18.156-7.219 2.05-.136 4.02-.437 6.125-.437zm-64.531 7.438c-20.07 13.917-31.528 29.558-32.157 30.406L12.47 112l2.844 4.156c1.476 2.051 35.082 47.66 89.687 51.406 2.297.301 4.621.438 7 .438 1.914 0 3.773-.11 5.688-.219.382-.027.71-.164 1.093-.219 5.496-.382 10.965-1.148 16.406-2.406l-12.03-12.031h-.22l-.437-.438c-3.39.903-6.836 1.313-10.5 1.313-1.531 0-3.09-.137-4.594-.219C86.352 151.54 70 133.63 70 112c0-3.664.41-7.11 1.313-10.5L60.374 90.344C57.559 96.988 56 104.316 56 112c0 10.309 2.98 19.906 7.875 28.219-16.625-9.68-28.547-21.93-33.906-28.219 4.676-5.469 14.191-15.586 27.562-24.5zm112.437 5.906c18.758 10.855 30.434 24.992 33.469 28.875-3.91 4.894-14.629 17.828-33.25 28.437C165.129 132.29 168 122.446 168 112c0-10.5-3.063-20.262-8.094-28.656z" fill="#fff"/>
    </g>
</svg>
