<svg xmlns="http://www.w3.org/2000/svg" width="32" height="32" viewBox="0 0 224 224">
    <g fill="none" stroke-miterlimit="10" font-family="none" font-weight="none" font-size="none" text-anchor="none" style="mix-blend-mode:normal">
        <path d="M0 224V0h224v224z"/>
        <path d="M112 56C53.648 56 8.75 107.406 8.75 107.406L4.594 112l4.156 4.594s40.934 46.676 95.375 50.969c2.598.328 5.195.437 7.875.437 2.68 0 5.277-.11 7.875-.438 54.441-4.292 95.375-50.968 95.375-50.968l4.156-4.594-4.156-4.594S170.352 56 112 56zm0 14c15.422 0 29.64 4.21 42 9.844 4.457 7.383 7 15.886 7 25.156 0 25.293-18.977 46.074-43.531 48.781-.137.028-.301-.027-.438 0-1.668.082-3.336.219-5.031.219-1.86 0-3.664-.11-5.469-.219C81.977 151.074 63 130.293 63 105c0-9.133 2.46-17.637 6.781-24.938h-.219C82.032 74.32 96.415 70 112 70zm0 14c-11.594 0-21 9.406-21 21s9.406 21 21 21 21-9.406 21-21-9.406-21-21-21zm-61.25 6.563C49.656 95.266 49 99.995 49 105c0 12.277 3.5 23.762 9.625 33.469-17.637-10.2-29.887-22.367-33.906-26.469 3.363-3.445 12.742-12.578 26.031-21.438zm122.5 0c13.29 8.859 22.668 17.992 26.031 21.437-4.02 4.102-16.27 16.27-33.906 26.469C171.5 128.762 175 117.277 175 105c0-5.004-.656-9.79-1.75-14.438z" fill="#fff"/>
    </g>
</svg>
