<svg xmlns="http://www.w3.org/2000/svg" width="32" height="32" viewBox="0 0 224 224">
    <g fill="none" stroke-miterlimit="10" font-family="none" font-weight="none" font-size="none" text-anchor="none" style="mix-blend-mode:normal">
        <path d="M0 224V0h224v224z"/>
        <path d="M196 59.91a68.69 68.69 0 0 1-19.797 5.414c7.11-4.265 12.578-11.02 15.149-19.058a69.444 69.444 0 0 1-21.875 8.367c-6.29-6.7-15.258-10.91-25.157-10.91-19.03 0-34.48 15.449-34.48 34.48 0 2.707.3 5.332.902 7.848-28.656-1.422-54.058-15.149-71.039-36.012-2.98 5.086-4.676 11.02-4.676 17.336 0 11.95 6.07 22.504 15.34 28.684-5.66-.192-10.965-1.723-15.613-4.32v.437c0 16.707 11.867 30.652 27.644 33.797a34.314 34.314 0 0 1-9.078 1.23c-2.215 0-4.402-.219-6.48-.629 4.375 13.7 17.117 23.653 32.183 23.953-11.785 9.243-26.66 14.739-42.793 14.739-2.789 0-5.523-.164-8.23-.493 15.258 9.79 33.36 15.504 52.828 15.504 63.41 0 98.082-52.527 98.082-98.082 0-1.476-.055-2.98-.11-4.457A70.596 70.596 0 0 0 196 59.91z" fill="#fff"/>
    </g>
</svg>
